<?xml version="1.0" encoding="UTF-8" standalone="no"?>
<!-- Created with Inkscape (http://www.inkscape.org/) -->

<svg
   width="118.11838mm"
   height="168.07306mm"
   viewBox="0 0 446.43167 635.23678"
   version="1.1"
   id="svg1"
   xml:space="preserve"
   inkscape:version="1.4.2 (ebf0e940d0, 2025-05-08)"
   sodipodi:docname="icon-nusarupa.svg"
   inkscape:export-filename="icon-nusarupa.png"
   inkscape:export-xdpi="96"
   inkscape:export-ydpi="96"
   xmlns:inkscape="http://www.inkscape.org/namespaces/inkscape"
   xmlns:sodipodi="http://sodipodi.sourceforge.net/DTD/sodipodi-0.dtd"
   xmlns="http://www.w3.org/2000/svg"
   xmlns:svg="http://www.w3.org/2000/svg"><sodipodi:namedview
     id="namedview1"
     pagecolor="#ffffff"
     bordercolor="#000000"
     borderopacity="0.25"
     inkscape:showpageshadow="2"
     inkscape:pageopacity="0.0"
     inkscape:pagecheckerboard="0"
     inkscape:deskcolor="#d1d1d1"
     inkscape:document-units="mm"
     inkscape:zoom="0.44634012"
     inkscape:cx="273.33416"
     inkscape:cy="395.43835"
     inkscape:window-width="1360"
     inkscape:window-height="706"
     inkscape:window-x="0"
     inkscape:window-y="0"
     inkscape:window-maximized="1"
     inkscape:current-layer="layer1"
     showgrid="true"><inkscape:grid
       id="grid27"
       units="mm"
       originx="-338.04405"
       originy="-79.232063"
       spacingx="3.7795277"
       spacingy="3.7795276"
       empcolor="#0099e5"
       empopacity="0.30196078"
       color="#0099e5"
       opacity="0.14901961"
       empspacing="5"
       dotted="false"
       gridanglex="30"
       gridanglez="30"
       visible="true" /></sodipodi:namedview><defs
     id="defs1" /><g
     inkscape:label="Layer 1"
     inkscape:groupmode="layer"
     id="layer1"
     transform="translate(-338.04406,-79.232065)"><rect
       style="opacity:0.403509;fill:none"
       id="rect1"
       width="672.13318"
       height="215.08263"
       x="649.72876"
       y="76.175095"
       ry="0" /><path
       id="path153"
       style="fill:#f055a5;fill-opacity:1;stroke:none;stroke-width:3.6918;stroke-opacity:1"
       d="m 586.76924,79.423397 a 84.805665,84.805665 0 0 0 -90.30803,78.924043 84.805665,84.805665 0 0 0 24.6015,65.56131 c 3.08285,-1.14556 6.17817,-2.26589 9.33413,-3.23435 3.83405,-1.17653 7.72009,-2.22153 11.66304,-3.1376 4.11103,-0.90475 8.26986,-1.65648 12.48711,-2.25871 4.21725,-0.6026 8.49201,-1.05334 12.81541,-1.35342 4.32347,-0.29977 8.69933,-0.45195 13.12895,-0.44889 4.42954,0.003 8.90642,0.14989 13.44226,0.45501 3.69586,0.24854 7.35486,0.58043 10.96599,0.99216 3.61113,0.41143 7.18218,0.90927 10.7085,1.48373 3.52632,0.57431 7.00936,1.23718 10.45079,1.97537 3.44151,0.73797 6.83752,1.55118 10.19423,2.45226 2.0328,0.54525 4.01788,1.17761 6.01773,1.78205 A 84.805665,84.805665 0 0 0 665.69336,169.7315 84.805665,84.805665 0 0 0 586.76932,79.423474 Z" /><path
       d="m 666.65959,658.80549 c -2.3e-4,-0.0964 -0.0535,-0.18813 -0.0535,-0.28448 2.11899,-66.90854 -0.93671,-134.08902 -0.58349,-201.0572 0,-3.05953 -0.0688,-6.06163 -0.17512,-9.02082 -0.11471,-2.95951 -0.28371,-5.87748 -0.51313,-8.73673 -0.23019,-2.85909 -0.51696,-5.66733 -0.86376,-8.42632 -0.3449,-2.75907 -0.75326,-5.47027 -1.21393,-8.12923 -0.46114,-2.65881 -0.97664,-5.26011 -1.55233,-7.8189 -0.57584,-2.55878 -1.21187,-5.07612 -1.90249,-7.53465 -0.69055,-2.45852 -1.43525,-4.86597 -2.24112,-7.22439 -0.80595,-2.3585 -1.67009,-4.65613 -2.59121,-6.9143 -0.92111,-2.25817 -1.90501,-4.46036 -2.9413,-6.59121 -1.03628,-2.13076 -2.12862,-4.20027 -3.27992,-6.20348 -1.15138,-2.00336 -2.36355,-3.93996 -3.62994,-5.81584 -1.26647,-1.87573 -2.58701,-3.67965 -3.96849,-5.4279 -1.38171,-1.74832 -2.822,-3.44549 -4.31881,-5.06633 -1.49673,-1.62069 -3.0453,-3.17202 -4.65728,-4.66538 -1.61174,-1.49344 -3.28015,-2.92486 -5.00714,-4.29082 -1.72699,-1.36589 -3.51553,-2.66463 -5.35746,-3.90295 -1.84231,-1.31121 -3.74213,-2.536 -5.70771,-3.6834 -1.96543,-1.14732 -3.9925,-2.22169 -6.08121,-3.20513 -2.08885,-0.98337 -4.24256,-1.88146 -6.45454,-2.70102 -2.21229,-0.81964 -4.49271,-1.55439 -6.82827,-2.21007 -2.33548,-0.65614 -4.73123,-1.22716 -7.18991,-1.71881 -2.45898,-0.49095 -4.98121,-0.89993 -7.56355,-1.22777 -2.58234,-0.32654 -5.21981,-0.58502 -7.92543,-0.74944 -2.70569,-0.16518 -5.46988,-0.24547 -8.29884,-0.24547 -2.69735,0 -5.35677,0.0834 -7.97192,0.24547 -2.6153,0.16519 -5.19419,0.42214 -7.72705,0.74944 -2.53286,0.3273 -5.01953,0.73643 -7.47003,1.22777 -2.45081,0.49096 -4.85672,1.06328 -7.22524,1.71881 -2.36829,0.65614 -4.70515,1.39058 -6.99131,2.21007 -2.28631,0.81963 -4.53094,1.71765 -6.73497,2.70102 -2.20395,0.98344 -4.36806,2.05781 -6.48965,3.20513 -2.12174,1.1474 -4.19347,2.37219 -6.233,3.6834 -1.97361,1.23832 -3.89912,2.53706 -5.76583,3.90295 -1.86678,1.36596 -3.67942,2.79738 -5.43929,4.29082 -1.75995,1.49336 -3.4594,3.04469 -5.11237,4.66538 -1.65288,1.62084 -3.26287,3.31801 -4.80884,5.06633 -1.54613,1.74825 -3.03124,3.55217 -4.47038,5.4279 -1.43922,1.87588 -2.82308,3.81248 -4.15531,5.81584 -1.33224,2.00321 -2.61469,4.07272 -3.84001,6.20348 -1.22541,2.13085 -2.39491,4.33304 -3.51355,6.59121 -1.05258,2.25817 -2.04351,4.5558 -2.96463,6.9143 -0.92104,2.35842 -1.77822,4.76587 -2.56788,7.22439 -0.78928,2.45853 -1.5131,4.97587 -2.17107,7.53465 -0.65767,2.55879 -1.24766,5.16009 -1.77409,7.8189 -0.5269,2.65896 -0.98245,5.37016 -1.37728,8.12923 -0.39384,2.75899 -0.72955,5.56723 -0.99216,8.42632 -0.26154,2.85925 -0.46343,5.77722 -0.59496,8.73673 -0.13153,2.95919 -0.1866,5.96129 -0.1866,9.02082 -1.3554,67.01606 -2.28807,135.11795 -0.54831,201.3416 1.05021,39.98089 208.16039,50.17871 208.01914,-1.5e-4 z"
       style="fill:#fac44c;fill-opacity:1;stroke-width:13.3185"
       id="path154"
       sodipodi:nodetypes="ssssscsssssssssssscsssssccscsssssscssssssscssssscssss" /><path
       d="m 392.41757,295.1972 c -1.4591,-0.0459 -2.88631,0.0153 -4.27177,0.19424 -1.38539,0.17589 -2.73437,0.46037 -4.04764,0.8513 -1.31335,0.39154 -2.58089,0.89527 -3.82365,1.49367 -1.24284,0.59801 -2.45554,1.29354 -3.62948,2.091 -0.90077,0.61178 -1.78243,1.27602 -2.64367,2.00144 -0.86131,0.72573 -1.7016,1.50958 -2.52422,2.34497 -1.64524,1.67093 -3.20949,3.55584 -4.70492,5.64592 -1.49543,2.09008 -2.91958,4.38916 -4.2717,6.87056 -1.35212,2.48147 -2.63831,5.14594 -3.85355,7.99088 -1.21515,2.84487 -2.36546,5.87075 -3.45023,9.05126 -1.08476,3.18051 -2.10117,6.51886 -3.06189,10.00717 -0.96081,3.48832 -1.86021,7.12025 -2.70348,10.88845 -0.84319,3.7682 -1.62772,7.67475 -2.35987,11.695 -0.73185,4.02026 -1.41881,8.15248 -2.04627,12.39696 -0.62707,4.24447 -1.2033,8.59838 -1.73257,13.03924 -1.05854,8.88172 -1.92436,18.13181 -2.62875,27.63181 -0.70432,9.5 -1.24116,19.24495 -1.64295,29.14039 -0.40148,9.89545 -0.67067,19.93856 -0.82155,30.00668 -0.15065,10.06805 -0.18277,20.16798 -0.13459,30.18586 0.0459,10.01787 0.17742,19.94819 0.37319,29.69298 0.3923,19.48966 1.02833,38.21819 1.70274,55.27861 0.6745,17.06042 1.39816,32.45267 1.94173,45.30127 0.54372,12.84852 0.9111,23.15263 0.9111,30.00667 0,4.71456 0.1713,9.08774 0.50778,13.1288 0.33648,4.04098 0.83508,7.74503 1.50858,11.11251 0.50472,1.68378 1.13922,3.27633 1.89691,4.74966 0.75785,1.47325 1.64837,2.82973 2.65858,4.09252 1.01029,1.26288 2.14277,2.42779 3.40542,3.48013 1.26287,1.05235 2.65185,1.99595 4.16724,2.83784 1.6837,1.0102 3.55339,1.90096 5.61594,2.65866 2.06263,0.75784 4.32462,1.37674 6.76609,1.88192 2.4414,0.50548 5.06595,0.89748 7.88628,1.15007 2.82024,0.25236 5.82226,0.37319 9.02143,0.37319 3.19894,0 6.19836,-0.10324 8.97655,-0.31354 2.77818,-0.2103 5.34981,-0.53531 7.70709,-0.95591 2.3572,-0.42136 4.50112,-0.93679 6.43742,-1.56823 1.93637,-0.63167 3.65257,-1.36871 5.16788,-2.2106 1.68378,-0.84189 3.22617,-1.8004 4.6153,-2.85275 1.38913,-1.05234 2.62463,-2.20242 3.71911,-3.46522 1.0944,-1.26287 2.05299,-2.63418 2.85274,-4.10743 0.79983,-1.47333 1.45153,-3.05104 1.95664,-4.73475 0.50548,-1.68378 0.95117,-3.4503 1.32933,-5.30233 0.37777,-1.85202 0.68825,-3.78961 0.941,-5.8101 0.25236,-2.02049 0.44048,-4.13023 0.56743,-6.31804 0.12694,-2.18774 0.19424,-4.45356 0.19424,-6.81084 V 449.786 c 0,-3.53595 0.0688,-7.02021 0.23859,-10.44031 0.16824,-3.4201 0.42519,-6.77749 0.76167,-10.08189 0.33648,-3.30431 0.76473,-6.54975 1.26953,-9.73836 0.50549,-3.18862 1.08897,-6.32202 1.76247,-9.39486 0.67373,-3.07283 1.42844,-6.09412 2.27033,-9.05126 0.84189,-2.95705 1.76782,-5.85155 2.77811,-8.69283 1.01021,-2.84135 2.10729,-5.62374 3.28596,-8.34931 1.1786,-2.72557 2.44676,-5.39586 3.79375,-8.00572 1.43119,-2.6098 2.92777,-5.13998 4.49577,-7.60248 0.96088,-1.13104 1.75161,-2.30138 2.37486,-3.49505 0.62326,-1.19374 1.07284,-2.41409 1.38906,-3.65938 0.31583,-1.24528 0.49784,-2.50808 0.5376,-3.79374 0.0382,-1.28567 -0.0612,-2.5984 -0.26918,-3.91328 -0.20571,-1.31495 -0.51925,-2.64 -0.94093,-3.973 -0.42136,-1.33299 -0.94742,-2.66294 -1.55339,-4.00289 -0.60567,-1.33996 -1.28627,-2.68206 -2.04626,-4.01782 -0.76014,-1.33575 -1.59599,-2.6676 -2.47933,-3.98791 -1.76683,-2.64076 -3.74817,-5.23946 -5.8251,-7.7519 -2.07693,-2.51237 -4.25044,-4.93427 -6.39268,-7.22907 -4.28454,-4.58967 -8.45362,-8.66025 -11.53066,-11.84435 -3.1071,-2.5776 -6.10682,-4.81711 -9.00652,-6.7362 -1.44985,-0.9595 -2.87286,-1.84468 -4.2717,-2.64367 -1.39885,-0.79899 -2.77398,-1.50957 -4.12235,-2.1508 -1.34838,-0.64161 -2.67457,-1.21661 -3.97308,-1.70274 -1.29843,-0.48637 -2.57446,-0.89099 -3.82365,-1.22472 -1.2491,-0.33418 -2.47389,-0.59266 -3.67421,-0.77673 -1.20032,-0.1843 -2.37288,-0.29137 -3.52495,-0.32884 z"
       style="fill:#59d5e0;fill-opacity:1;stroke-width:14.8721"
       id="path155" /><path
       d="m 582.41992,224.48956 c -4.54609,0 -9.02266,0.15371 -13.44249,0.44813 -4.41983,0.29442 -8.77557,0.74026 -13.06914,1.32926 -4.29335,0.5896 -8.52834,1.32665 -12.69566,2.2106 -4.16731,0.88395 -8.26634,1.91305 -12.3074,3.09172 -3.87259,1.1786 -7.67972,2.48209 -11.42612,3.91328 -42.74669,16.27902 -83.3373,31.85548 -80.44471,50.90673 2.54043,16.73158 20.21914,32.74746 33.83239,42.53302 16.557,8.67914 29.1238,-6.00603 46.56788,-12.45607 2.88418,-1.06641 5.91603,-1.81134 8.9468,-2.56903 3.0307,-0.75785 6.10942,-1.41827 9.24543,-1.98654 3.136,-0.56819 6.31788,-1.04003 9.55911,-1.41888 3.24123,-0.37854 6.54127,-0.66225 9.88772,-0.85137 3.34646,-0.18965 6.74966,-0.28371 10.20134,-0.28371 3.62007,0 7.15741,0.0941 10.61964,0.28371 3.46201,0.18965 6.85213,0.4726 10.15652,0.85137 3.3044,0.37855 6.51718,0.85061 9.66366,1.41888 3.14655,0.5682 6.22696,1.22885 9.2156,1.98654 2.98864,0.75785 5.89186,1.62192 8.72273,2.56903 2.83065,0.94712 5.58665,1.98509 8.25961,3.12163 2.67296,1.13654 5.26662,2.36324 7.78173,3.6892 2.51512,1.32589 4.9465,2.74141 7.30378,4.25679 2.35728,1.43119 4.64573,2.94719 6.85565,4.52567 2.20999,1.57856 4.34504,3.23297 6.40759,4.95881 2.06262,1.72584 4.04427,3.51867 5.95953,5.39188 1.91527,1.8732 3.75842,3.81959 5.5264,5.84008 1.7679,2.0205 3.47255,4.12021 5.09317,6.28807 1.62061,2.16778 3.15695,4.40614 4.63021,6.72128 1.47332,2.31522 2.87109,4.70683 4.19706,7.16934 1.32596,2.4625 2.58524,4.99268 3.76392,7.60248 1.1786,2.60986 2.28448,5.28015 3.31579,8.00572 1.03131,2.72557 1.98378,5.50796 2.86773,8.34931 0.88396,2.84128 1.69793,5.73578 2.4346,8.69283 0.73643,2.95714 1.39716,5.97843 1.98653,9.05126 0.58961,3.07284 1.11139,6.20624 1.55332,9.39486 0.44202,3.18861 0.81062,6.43405 1.10527,9.73836 0.29442,3.30432 0.51084,6.66141 0.6569,10.08189 0.14683,3.42048 0.22406,6.90443 0.22406,10.44031 v 219.21746 c 0,2.35728 0.0688,4.62309 0.19425,6.81083 0.12694,2.18781 0.31506,4.29747 0.56742,6.31796 0.25313,2.02049 0.56285,3.95817 0.94093,5.81019 0.37854,1.85202 0.82422,3.61854 1.32933,5.30232 0.50548,1.68379 1.13921,3.27633 1.89691,4.74966 0.75784,1.47325 1.63346,2.82973 2.64367,4.09253 1.01028,1.26287 2.14262,2.42778 3.40541,3.48013 1.26288,1.05234 2.65185,1.99594 4.16724,2.83783 1.68371,1.01021 3.58597,1.90096 5.69066,2.65866 2.10469,0.75785 4.41968,1.37674 6.94527,1.88192 2.52559,0.50549 5.25338,0.89749 8.19996,1.15008 2.9465,0.25236 6.11692,0.37319 9.48441,0.37319 3.19916,0 6.1836,-0.10324 8.96163,-0.31354 2.77826,-0.2103 5.34982,-0.53531 7.70709,-0.95592 2.3572,-0.42136 4.50112,-0.93679 6.43742,-1.56823 1.93637,-0.63166 3.65257,-1.36871 5.16796,-2.2106 1.68371,-0.84189 3.2085,-1.8004 4.55549,-2.85274 1.347,-1.05235 2.52958,-2.20243 3.53986,-3.46522 1.01028,-1.26288 1.85072,-2.63419 2.52422,-4.10744 0.67372,-1.47333 1.17179,-3.05104 1.5085,-4.73475 0.50549,-1.68378 0.95117,-3.4503 1.32933,-5.30232 0.37778,-1.85202 0.68826,-3.78962 0.941,-5.81011 0.25313,-2.02049 0.44049,-4.13023 0.56743,-6.31804 0.12695,-2.18774 0.19424,-4.45355 0.19424,-6.81083 V 450.78665 c 0,-4.37769 -0.0811,-8.68763 -0.23859,-12.94962 -0.15754,-4.26206 -0.38619,-8.47473 -0.70202,-12.62101 -0.31584,-4.14621 -0.72114,-8.23209 -1.19489,-12.26259 -0.47337,-4.03051 -1.0265,-8.00419 -1.65794,-11.919 -0.63166,-3.91472 -1.33162,-7.77645 -2.1209,-11.57547 -0.78927,-3.79895 -1.66673,-7.53389 -2.61384,-11.21705 -0.94712,-3.68325 -1.97186,-7.306 -3.07681,-10.87346 -1.10496,-3.56746 -2.29197,-7.07833 -3.55477,-10.53002 -1.17868,-3.45168 -2.41861,-6.84608 -3.7341,-10.17143 -1.31541,-3.32543 -2.69995,-6.58402 -4.15217,-9.78318 -1.4523,-3.1991 -2.96654,-6.33686 -4.55557,-9.40977 -1.58903,-3.07283 -3.24788,-6.07485 -4.97372,-9.02143 -1.72585,-2.94658 -3.52931,-5.82778 -5.39196,-8.64802 -1.86265,-2.82025 -3.79573,-5.58061 -5.79519,-8.2746 -1.99946,-2.69407 -4.06225,-5.33345 -6.19852,-7.90118 -2.13619,-2.56774 -4.34358,-5.07138 -6.61666,-7.51286 -2.18889,-2.52559 -4.43153,-4.96592 -6.7362,-7.33368 -2.30466,-2.36783 -4.67425,-4.66071 -7.09462,-6.87063 -2.42045,-2.20991 -4.88716,-4.34053 -7.42331,-6.3926 -2.53614,-2.05208 -5.1298,-4.02049 -7.78173,-5.91472 -2.6517,-1.89416 -5.37245,-3.71529 -8.14016,-5.45168 -2.76763,-1.73632 -5.58535,-3.39517 -8.46876,-4.97373 -2.88342,-1.57847 -5.82808,-3.07505 -8.82727,-4.49576 -2.9992,-1.42064 -6.05582,-2.75502 -9.17079,-4.01781 -3.1149,-1.347 -6.26589,-2.6153 -9.4545,-3.79383 -3.18862,-1.17867 -6.41639,-2.2756 -9.67865,-3.28588 -3.26225,-1.01029 -6.56673,-1.9363 -9.90263,-2.77819 -3.33598,-0.84189 -6.70216,-1.59675 -10.11178,-2.27025 -3.40955,-0.67373 -6.85251,-1.25737 -10.33578,-1.76247 -3.48327,-0.50549 -7.00293,-0.9329 -10.55984,-1.26961 -3.55691,-0.33648 -7.15343,-0.59343 -10.78383,-0.76167 -3.63063,-0.16824 -7.3037,-0.25389 -11.00797,-0.25389 z"
       style="fill:#7ed957;fill-opacity:1;stroke-width:14.8721"
       id="path156"
       sodipodi:nodetypes="sssscsssssssssssssssscssssssssssssssssscsssssscssssssscssscsssssssssssscssssssscssssssscsssssssss" /></g></svg>
